<svg xmlns="http://www.w3.org/2000/svg" fill="none" viewBox="0 0 1000 1000" height="1000" width="1000">
<path fill="black" d="M4.6736 597.669C4.9856 582.669 6.11346 567.572 6.06546 552.56C6.05946 550.478 5.36951 547.796 5.35151 545.732C5.00351 506.881 3.28743 468.055 2.26744 429.144C1.24746 390.234 4.07965 349.103 3.67166 308.758C2.96367 239.44 0.0717601 170.33 1.60773 100.994C2.25573 71.9112 1.43368 43.2908 0.209702 14.2384C0.143702 12.6603 -0.234273 2.41818 0.22172 1.96217C0.893707 1.29017 16.9914 2.0342 19.2354 2.0642C75.2867 2.82022 131.241 -0.395814 187.299 0.318196C191.235 0.366196 195.351 1.32015 199.311 1.35616C206.085 1.41616 213.074 0.018161 219.86 0.000160739C226.208 -0.0178395 232.118 1.48217 238.394 1.38017C242.264 1.32017 246.524 0.450168 250.364 0.324166C274.268 -0.473845 298.16 1.78222 322.027 2.41222C357.732 3.35424 393.732 1.57821 429.365 2.41222C448.799 2.86223 468.436 0.816186 487.996 1.36219C492.994 1.50019 498.868 2.86222 503.788 2.76622C508.24 2.68222 513.058 1.43419 517.864 1.35019C542.32 0.924179 559.989 2.85622 584.379 3.40222C587.313 3.46822 599.973 3.4202 599.973 3.4202C599.973 3.4202 600.021 14.0223 599.991 19.3804C599.529 95.4792 597.687 171.5 597.219 247.756C597.135 261.412 596.187 276.136 596.901 289.564C597.459 300.016 598.659 308.764 598.599 319.391C598.239 380.892 598.863 442.393 597.597 503.893C597.339 516.385 596.481 528.583 595.539 540.926C595.095 546.752 596.169 552.602 595.887 558.416C595.695 562.382 594.681 566.39 594.489 570.392C594.057 579.357 595.227 588.369 595.191 597.321C591.855 597.705 585.393 597.465 581.997 597.411C574.227 597.291 568.335 596.325 560.715 596.625C544.882 597.243 529.372 599.637 513.406 599.061C492.598 598.317 473.2 598.623 452.381 599.043C417.786 599.751 382.812 599.421 348.126 599.391C337.027 599.379 325.591 598.251 314.521 599.037C297.847 600.219 284.834 599.505 268.232 599.007C218.468 597.507 168.573 601.005 118.714 599.703C112.804 599.547 106.828 598.503 100.894 598.323C79.2047 597.675 57.4128 599.643 35.7112 599.037C25.4033 598.749 15.0535 597.183 4.68562 597.657L4.6736 597.669Z"></path>
<g clip-path="url(#clip0_942_523)">
<path fill="black" d="M849.953 299.982C837.05 299.787 824.879 298.722 812.038 297.66C798.298 296.523 784.54 295.878 770.797 294.567C765.231 294.036 759.672 293.226 754.089 292.809C743.43 283.419 731.37 274.845 721.088 265.095C717.704 261.885 714.671 258.189 711.209 255.039C709.208 253.218 704.399 250.017 703.031 248.28C701.846 246.771 699.863 241.101 698.762 238.896C696.101 233.571 692.918 228.504 690.203 223.245C682.832 208.981 675.959 194.41 669.232 179.818C668.782 178.843 666.874 174.892 666.769 174.19C666.496 172.39 666.85 166.738 666.946 164.614C667.579 150.676 667.681 136.783 668.452 122.831C668.563 120.815 668.149 117.662 668.488 115.91C668.812 114.233 672.389 108.302 673.358 106.172C676.565 99.1336 679.88 92.1859 683.111 85.1629C687.365 75.9199 690.851 66.3109 696.026 57.5119C699.569 54.6769 703.727 52.7303 707.429 50.1653C723.741 38.8673 738.414 24.9174 754.782 13.6585C759.777 10.2206 765.945 7.19956 771.141 3.81556C772.096 3.19458 775.756 0.0746469 776.482 0.00564751C777.121 -0.054352 778.444 0.383642 779.152 0.377642C792.97 0.272643 804.673 3.2516 818.119 4.80559C830.057 6.18556 842.132 6.97756 854.012 8.89452C860.966 10.0135 867.959 12.0295 874.971 12.9025C880.365 13.5745 885.894 13.2625 891.249 14.5165C906.768 28.2143 921.055 43.2503 934.525 59.0359C935.311 59.9569 935.881 61.2559 936.715 62.2219C939.994 66.0169 944.485 69.2599 947.746 73.0399C949.993 75.6439 951.961 89.4079 952.831 93.5809C957.647 116.669 961.304 140.185 965.345 163.396C966.236 168.508 967.679 169.726 965.603 174.919C960.653 187.297 956.186 199.969 951.358 212.431C947.908 221.334 944.479 230.25 940.9 239.1C922.963 255.12 902.856 268.611 882.396 281.085L855.083 299.991C853.376 299.973 851.657 300.018 849.95 299.991L849.953 299.982Z"></path>
</g>
<g clip-path="url(#clip1_942_523)">
<path fill="black" d="M881.73 632.921C881.986 632.878 882.308 632.823 882.531 633.001L881.73 632.921Z"></path>
<path fill="black" d="M876.668 632.372C876.691 632.371 877.02 632.501 877.066 632.549L876.557 632.541C876.485 632.488 876.651 632.373 876.668 632.372Z"></path>
<path fill="black" d="M803.254 562.013L803.147 562.044C803.111 561.988 803.184 561.946 803.182 561.942L803.255 562.014L803.254 562.013Z"></path>
<path fill="black" d="M815.599 510.014L815.746 509.877C815.936 509.886 816.044 509.791 816.04 509.605L816.334 509.332C816.717 509.162 817.167 508.798 817.473 508.519C820.852 505.429 824.474 502.426 827.974 499.487C830.835 497.086 833.665 494.746 836.673 492.533C836.742 492.482 836.743 492.468 836.748 492.464C842.35 488.329 847.778 484.027 853.445 480.013C853.517 480.012 853.533 480.159 853.554 480.154C854.384 480.016 855.227 479.875 856.061 479.986C860.434 479.439 864.775 479.274 869.155 478.849C869.372 478.828 869.909 479 869.951 478.997C870.142 478.981 870.372 478.69 870.578 478.665C870.684 478.653 871.193 478.852 871.439 478.805C871.636 478.767 871.776 478.541 872.182 478.549C872.305 478.551 872.988 478.758 873.031 478.753C873.262 478.723 873.78 478.438 874.202 478.403C874.625 478.367 875.2 478.55 875.461 478.536C877.249 478.427 878.984 478.215 880.784 478.164C880.975 478.159 881.443 478.01 881.478 478.019C881.516 478.028 881.534 478.205 881.547 478.208C881.583 478.212 881.893 477.929 882.095 477.906C882.365 477.876 882.408 478.069 882.599 478.061C884.361 477.988 886.277 477.735 888.076 477.532C888.802 477.451 889.612 477.564 890.356 477.491C891.092 477.421 891.977 477.401 892.725 477.363C893.853 477.306 895.117 477.404 896.167 477.33C897.131 477.263 897.289 476.72 898.429 477.228C899.113 477.534 899.691 477.841 900.39 478.139C908.863 481.739 917.367 484.297 925.592 488.191C928.018 489.647 930.636 490.788 933.133 492.036C934.207 492.573 935.289 493.179 936.436 493.486L936.653 493.699C936.701 494.294 937.466 494.726 937.846 495.142C940.483 498.031 943.001 500.97 945.75 503.82C949.405 507.607 952.858 511.667 956.615 515.387C957.23 515.996 957.198 516.445 957.405 517.096C959.42 523.449 961.245 529.918 963.317 536.237C964.336 539.344 965.368 542.447 966.285 545.612C966.36 545.871 966.63 546.162 966.661 546.455C966.759 547.356 966.032 549.363 965.845 550.333C964.786 555.87 963.371 561.522 962.184 567.029C961.252 571.354 960.693 576.11 959.052 580.252C958.718 581.093 958.945 581.828 958.831 582.473C958.706 583.179 958.164 584.197 957.973 584.961C957.474 586.947 957.374 588.983 956.868 590.991C956.749 591.461 956.442 592.712 956.249 593.065C956.151 593.242 955.916 593.301 955.797 593.612C955.539 594.278 955.616 595.264 955.131 595.934C943.657 603.136 932.78 610.914 921.722 618.693C916.684 622.238 911.771 625.99 906.472 629.17C905.894 629.516 905.214 630.227 904.562 630.488C904.489 630.519 903.107 630.611 902.958 630.605C902.461 630.585 902.003 630.28 901.613 630.237C900.664 630.132 898.984 630.396 897.929 630.208C891.11 630.241 884.565 628.564 877.796 628.794C871.949 628.227 866.138 627.595 860.207 627.452C860.016 627.448 859.679 627.601 859.556 627.565C859.477 627.542 859.36 627.314 859.195 627.232C857.967 626.618 858.3 626.464 857.455 625.738C856.915 625.272 856.174 625.238 855.566 624.788C855.262 624.564 854.619 623.733 854.379 623.576C854.157 623.433 853.636 623.461 853.385 623.271C853.172 623.107 853.123 622.864 852.958 622.731C851.798 621.788 850.185 620.987 848.901 620.206C847.801 619.538 845.924 618.564 845.092 617.732C844.994 617.636 845 617.418 844.85 617.274C844.59 617.021 844.126 617.042 843.829 616.832C843.37 616.509 843.063 615.88 842.752 615.645C842.533 615.479 841.483 614.976 841.08 614.696C839.752 613.774 838.403 612.803 837.131 611.858C836.653 611.502 835.992 611.278 835.645 611.054C835.235 610.788 835.022 610.211 834.639 609.938C834.322 609.712 834.016 609.746 833.763 609.596C833.538 609.46 833.229 609.041 832.966 608.863C831.738 608.031 830.435 607.429 829.268 606.482C829.076 606.327 829.089 606.062 828.842 605.873C828.484 605.602 827.985 605.707 827.82 605.599C827.319 605.277 826.424 604.417 825.941 603.982C824.13 602.887 822.038 601.663 820.435 600.473C819.499 599.778 819.063 599.577 818.116 599.016C817.833 598.849 817.658 598.541 817.32 598.358C817.107 598.245 816.791 598.3 816.694 598.187C816.672 598.16 816.314 597.649 816.306 597.616C816.135 596.814 816.031 596.911 815.752 596.22C815.474 595.53 815.122 594.346 815.047 593.945C815.032 593.869 814.654 593.434 814.565 593.208C814.342 592.636 814.216 591.712 813.891 591.177C813.254 590.127 813.34 590.137 812.919 589.072C812.04 586.846 810.885 584.683 810.1 582.559C808.571 578.421 806.666 574.091 804.891 570.007C804.158 568.32 803.441 566.786 802.755 565.098C802.693 564.945 802.461 564.801 802.449 564.71C802.443 564.658 802.61 564.526 802.616 564.401C802.651 563.542 803.091 562.88 803.25 562.014L803.286 561.913L803.179 561.944C803.042 561.2 803.47 561.046 803.651 560.408C803.98 559.255 804.065 557.605 804.32 556.44C804.897 553.802 805.769 551.288 806.3 548.7C806.325 548.581 806.239 548.264 806.251 548.23C806.283 548.137 806.447 548.154 806.471 548.129C806.533 548.064 806.326 548.072 806.335 547.983C806.423 547.078 806.78 546.368 806.965 545.571C807.944 541.351 808.744 537.146 809.755 532.893C810.608 529.308 811.387 525.509 812.585 522.047C812.636 521.899 812.523 521.464 812.565 521.299C813.242 518.594 813.722 515.867 814.228 513.161C814.275 512.907 814.531 512.591 814.581 512.262C814.64 511.875 814.396 511.497 814.736 511.007C814.927 510.731 815.361 510.627 815.374 510.225L815.595 510.02L815.599 510.014Z"></path>
<path fill="black" d="M836.746 492.464L836.672 492.533L836.637 492.429L836.746 492.464Z"></path>
<path fill="black" d="M874.809 632.303L874.884 632.304L874.882 632.374L874.809 632.303Z"></path>
<path fill="black" d="M875.322 632.384C875.408 632.391 875.565 632.339 875.54 632.453C875.462 632.444 875.301 632.5 875.322 632.384Z"></path>
<path fill="black" d="M875.684 632.458L875.756 632.459L875.755 632.528L875.684 632.458Z"></path>
<path fill="black" d="M879.398 632.735L879.472 632.736L879.47 632.806L879.398 632.735Z"></path>
<path fill="black" d="M881.289 632.91H881.363L881.361 632.98L881.289 632.91Z"></path>
<path fill="black" d="M966.418 567.866L966.492 567.869L966.491 567.938L966.418 567.866Z"></path>
<path fill="black" d="M966.344 568.074L966.416 568.076L966.415 568.145L966.344 568.074Z"></path>
<path fill="black" d="M677.557 513.547C677.471 513.781 677.365 514.075 677.094 514.175L677.557 513.547Z"></path>
<path fill="black" d="M680.528 509.598C680.518 509.617 680.238 509.828 680.172 509.843L680.428 509.423C680.511 509.389 680.536 509.583 680.528 509.598Z"></path>
<path fill="black" d="M780.717 482.772L780.741 482.667C780.809 482.664 780.812 482.746 780.816 482.746L780.715 482.772L780.717 482.772Z"></path>
<path fill="black" d="M822.268 518.419L822.321 518.608C822.221 518.762 822.255 518.898 822.427 518.986L822.533 519.364C822.502 519.765 822.616 520.318 822.722 520.709C823.9 525.031 824.882 529.513 825.863 533.861C826.664 537.415 827.424 540.914 827.982 544.499C827.995 544.581 828.007 544.589 828.009 544.594C829.059 551.278 830.347 557.898 831.256 564.575C831.222 564.636 831.08 564.577 831.074 564.598C830.795 565.356 830.513 566.127 830.004 566.768C828.372 570.677 826.405 574.373 824.657 578.228C824.571 578.419 824.151 578.783 824.134 578.819C824.055 578.986 824.21 579.319 824.131 579.503C824.091 579.597 823.661 579.924 823.583 580.152C823.522 580.335 823.661 580.561 823.456 580.896C823.394 580.997 822.871 581.465 822.855 581.503C822.769 581.71 822.778 582.28 822.604 582.65C822.43 583.019 821.982 583.409 821.868 583.633C821.095 585.175 820.443 586.724 819.612 588.248C819.523 588.41 819.431 588.872 819.406 588.897C819.378 588.924 819.209 588.852 819.2 588.862C819.178 588.89 819.285 589.286 819.208 589.466C819.104 589.706 818.906 589.647 818.82 589.81C818.028 591.313 817.324 593.033 816.633 594.63C816.353 595.274 815.854 595.894 815.558 596.549C815.263 597.196 814.849 597.943 814.52 598.584C814.022 599.551 813.316 600.556 812.871 601.467C812.462 602.303 812.882 602.699 811.861 603.401C811.247 603.821 810.684 604.153 810.071 604.59C802.644 609.892 796.156 615.726 788.581 620.677C786.065 621.987 783.744 623.612 781.384 625.082C780.369 625.715 779.287 626.321 778.446 627.126L778.145 627.203C777.577 626.953 776.809 627.379 776.243 627.493C772.313 628.28 768.395 628.943 764.448 629.843C759.2 631.04 753.801 631.935 748.564 633.25C747.707 633.465 747.312 633.219 746.615 633.074C739.82 631.654 733.011 630.018 726.219 628.661C722.879 627.994 719.536 627.34 716.194 626.56C715.92 626.496 715.522 626.58 715.239 626.462C714.367 626.104 712.885 624.52 712.088 623.891C707.539 620.308 703.058 616.372 698.599 612.697C695.096 609.811 691.017 607.026 688.029 603.638C687.422 602.95 686.638 602.781 686.104 602.371C685.52 601.923 684.852 600.975 684.246 600.443C682.672 599.058 680.858 597.982 679.268 596.581C678.897 596.253 677.902 595.387 677.672 595.054C677.558 594.886 677.619 594.661 677.393 594.41C676.909 593.871 675.969 593.453 675.593 592.723C674.601 579.653 672.79 566.8 671.067 553.794C670.281 547.869 669.245 541.947 668.92 535.982C668.885 535.332 668.566 534.42 668.645 533.749C668.654 533.673 669.243 532.476 669.321 532.356C669.581 531.951 670.085 531.719 670.314 531.415C670.873 530.676 671.451 529.148 672.138 528.361C675.433 522.665 680.16 518.032 683.252 512.282C686.623 507.688 690.036 503.156 693.06 498.286C693.157 498.129 693.181 497.774 693.274 497.689C693.333 497.635 693.599 497.648 693.755 497.551C694.915 496.827 694.894 497.18 695.971 496.83C696.66 496.608 697.053 496.008 697.762 495.72C698.115 495.576 699.188 495.447 699.449 495.323C699.688 495.208 699.917 494.761 700.213 494.644C700.467 494.546 700.713 494.624 700.915 494.552C702.344 494.046 703.863 493.093 705.205 492.404C706.352 491.814 708.159 490.726 709.326 490.439C709.462 490.404 709.658 490.515 709.863 490.461C710.221 490.368 710.429 489.971 710.766 489.825C711.285 489.601 712.01 489.652 712.377 489.508C712.636 489.407 713.609 488.777 714.06 488.578C715.553 487.921 717.099 487.272 718.584 486.673C719.143 486.448 719.67 486.007 720.045 485.828C720.488 485.616 721.119 485.72 721.557 485.534C721.917 485.381 722.036 485.109 722.296 484.972C722.53 484.851 723.064 484.798 723.356 484.665C724.716 484.048 725.903 483.256 727.338 482.747C727.574 482.662 727.81 482.802 728.103 482.688C728.525 482.523 728.673 482.056 728.852 481.971C729.391 481.711 730.615 481.385 731.248 481.195C733.134 480.221 735.274 479.076 737.145 478.321C738.237 477.88 738.633 477.615 739.609 477.1C739.9 476.946 740.267 476.95 740.599 476.758C740.807 476.636 740.91 476.346 741.061 476.32C741.097 476.315 741.738 476.266 741.773 476.276C742.59 476.524 742.553 476.39 743.32 476.495C744.088 476.6 745.343 476.884 745.746 477.017C745.822 477.042 746.405 476.939 746.656 476.976C747.288 477.069 748.194 477.415 748.843 477.405C750.113 477.386 750.063 477.453 751.242 477.622C753.707 477.976 756.251 478.069 758.576 478.451C763.108 479.196 767.999 479.722 772.601 480.235C774.503 480.448 776.256 480.599 778.135 480.851C778.305 480.874 778.55 480.75 778.639 480.785C778.69 480.806 778.729 481.009 778.84 481.076C779.61 481.523 780 482.213 780.715 482.768L780.79 482.847L780.814 482.742C781.561 482.992 781.493 483.423 781.989 483.885C782.883 484.721 784.352 485.597 785.293 486.378C787.425 488.146 789.3 490.098 791.409 491.803C791.506 491.882 791.838 491.964 791.863 491.991C791.932 492.063 791.836 492.191 791.848 492.223C791.877 492.307 791.971 492.131 792.048 492.181C792.832 492.696 793.308 493.34 793.947 493.882C797.331 496.756 800.788 499.474 804.186 502.391C807.049 504.85 810.145 507.352 812.728 510.038C812.839 510.153 813.292 510.271 813.423 510.387C815.567 512.27 817.829 514 820.058 515.741C820.267 515.905 820.431 516.272 820.708 516.474C821.033 516.712 821.498 516.694 821.781 517.216C821.94 517.509 821.823 517.922 822.184 518.129L822.264 518.413L822.268 518.419Z"></path>
<path fill="black" d="M828.011 544.595L827.984 544.499L828.097 544.521L828.011 544.595Z"></path>
<path fill="black" d="M681.5 508.085L681.462 508.147L681.398 508.111L681.5 508.085Z"></path>
<path fill="black" d="M681.177 508.47C681.129 508.538 681.1 508.694 681.008 508.618C681.054 508.558 681.081 508.396 681.177 508.47Z"></path>
<path fill="black" d="M680.931 508.737L680.895 508.797L680.832 508.763L680.931 508.737Z"></path>
<path fill="black" d="M678.865 511.694L678.829 511.756L678.766 511.72L678.865 511.694Z"></path>
<path fill="black" d="M677.783 513.187L677.747 513.248L677.684 513.212L677.783 513.187Z"></path>
<path fill="black" d="M695.769 615.815L695.731 615.875L695.668 615.841L695.769 615.815Z"></path>
<path fill="black" d="M695.615 615.652L695.579 615.712L695.516 615.678L695.615 615.652Z"></path>
<path fill="black" d="M799.185 349.746C798.951 349.639 798.655 349.506 798.582 349.237L799.185 349.746Z"></path>
<path fill="black" d="M802.974 352.997C802.955 352.985 802.766 352.697 802.758 352.632L803.167 352.921C803.194 353.003 802.989 353.005 802.974 352.997Z"></path>
<path fill="black" d="M819.942 450.949L820.048 450.983C820.043 451.048 819.958 451.042 819.957 451.046L819.941 450.947L819.942 450.949Z"></path>
<path fill="black" d="M778.25 486.452L778.048 486.481C777.899 486.369 777.753 486.387 777.643 486.541L777.237 486.6C776.822 486.526 776.234 486.574 775.816 486.631C771.184 487.275 766.407 487.715 761.77 488.168C757.979 488.539 754.251 488.876 750.455 489.013C750.368 489.016 750.358 489.027 750.353 489.028C743.274 489.291 736.237 489.788 729.181 489.918C729.122 489.879 729.198 489.75 729.178 489.742C728.418 489.394 727.646 489.043 727.035 488.49C723.141 486.514 719.506 484.243 715.681 482.163C715.492 482.06 715.159 481.622 715.123 481.602C714.958 481.509 714.593 481.619 714.411 481.524C714.317 481.476 714.024 481.032 713.795 480.934C713.611 480.856 713.36 480.962 713.034 480.731C712.935 480.661 712.505 480.115 712.467 480.095C712.26 479.991 711.666 479.936 711.3 479.731C710.934 479.526 710.577 479.059 710.356 478.926C708.834 478.023 707.292 477.236 705.796 476.28C705.637 476.178 705.166 476.04 705.142 476.014C705.117 475.985 705.21 475.831 705.201 475.822C705.174 475.798 704.75 475.857 704.571 475.763C704.333 475.639 704.416 475.458 704.255 475.358C702.776 474.442 701.062 473.586 699.473 472.756C698.833 472.42 698.242 471.878 697.592 471.526C696.95 471.175 696.218 470.701 695.585 470.318C694.633 469.74 693.663 468.96 692.763 468.438C691.937 467.959 691.478 468.314 690.859 467.269C690.488 466.64 690.205 466.071 689.816 465.441C685.107 457.816 679.74 451.023 675.412 443.297C674.323 440.768 672.885 438.389 671.612 435.989C671.064 434.957 670.552 433.865 669.805 432.979L669.757 432.685C670.08 432.174 669.72 431.399 669.664 430.849C669.275 427.036 669.013 423.248 668.508 419.406C667.837 414.298 667.495 409.079 666.7 403.969C666.569 403.133 666.869 402.784 667.097 402.14C669.321 395.851 671.772 389.573 673.929 383.28C674.99 380.186 676.038 377.087 677.216 374.003C677.313 373.75 677.27 373.363 677.423 373.108C677.892 372.32 679.705 371.088 680.447 370.402C684.678 366.48 689.27 362.662 693.587 358.836C696.977 355.83 700.326 352.267 704.183 349.804C704.966 349.304 705.228 348.58 705.714 348.118C706.245 347.613 707.305 347.083 707.926 346.567C709.541 345.226 710.861 343.624 712.494 342.269C712.877 341.953 713.888 341.104 714.261 340.923C714.448 340.833 714.676 340.916 714.962 340.729C715.577 340.329 716.115 339.483 716.917 339.206C730.641 339.698 744.23 339.389 757.968 339.18C764.226 339.084 770.51 338.751 776.759 339.097C777.441 339.135 778.426 338.932 779.116 339.081C779.194 339.097 780.376 339.787 780.493 339.874C780.886 340.165 781.073 340.668 781.365 340.919C782.073 341.53 783.602 342.246 784.346 342.983C789.919 346.733 794.228 351.724 799.879 355.286C804.295 358.986 808.642 362.72 813.385 366.121C813.538 366.231 813.905 366.292 813.983 366.389C814.033 366.452 813.99 366.702 814.074 366.86C814.701 368.041 814.336 367.982 814.582 369.041C814.739 369.72 815.321 370.158 815.542 370.861C815.654 371.212 815.671 372.244 815.772 372.505C815.865 372.744 816.306 373.01 816.395 373.304C816.469 373.555 816.361 373.78 816.414 373.98C816.785 375.39 817.611 376.936 818.181 378.284C818.671 379.436 819.606 381.269 819.777 382.407C819.799 382.54 819.661 382.714 819.695 382.915C819.753 383.264 820.144 383.504 820.259 383.84C820.435 384.357 820.303 385.039 820.412 385.403C820.49 385.659 821.039 386.651 821.197 387.101C821.717 388.589 822.225 390.126 822.686 391.6C822.858 392.154 823.26 392.703 823.406 393.078C823.578 393.521 823.4 394.108 823.546 394.544C823.667 394.903 823.937 395.045 824.051 395.307C824.152 395.542 824.149 396.054 824.254 396.345C824.748 397.703 825.443 398.915 825.817 400.332C825.879 400.565 825.707 400.774 825.794 401.064C825.92 401.483 826.39 401.674 826.459 401.853C826.671 402.393 826.876 403.589 827.005 404.211C827.813 406.106 828.771 408.261 829.353 410.118C829.693 411.202 829.925 411.607 830.355 412.588C830.483 412.881 830.438 413.229 830.603 413.565C830.707 413.775 830.998 413.905 831.008 414.051C831.01 414.085 830.99 414.699 830.976 414.731C830.628 415.479 830.771 415.458 830.578 416.174C830.385 416.891 829.951 418.05 829.768 418.418C829.734 418.487 829.777 419.051 829.712 419.285C829.546 419.874 829.086 420.696 829.025 421.312C828.905 422.519 828.841 422.464 828.536 423.564C827.897 425.863 827.522 428.265 826.868 430.428C825.595 434.644 824.512 439.225 823.472 443.534C823.043 445.314 822.693 446.96 822.225 448.715C822.182 448.873 822.284 449.119 822.238 449.199C822.211 449.245 821.995 449.26 821.914 449.358C821.363 450.039 820.601 450.334 819.945 450.951L819.855 451.014L819.961 451.048C819.619 451.729 819.177 451.617 818.641 452.037C817.673 452.793 816.599 454.09 815.682 454.897C813.607 456.725 811.368 458.29 809.361 460.102C809.268 460.186 809.146 460.492 809.115 460.513C809.033 460.571 808.909 460.466 808.874 460.473C808.784 460.491 808.958 460.6 808.896 460.668C808.274 461.355 807.551 461.736 806.916 462.282C803.551 465.176 800.341 468.157 796.93 471.06C794.055 473.506 791.109 476.168 788.027 478.323C787.895 478.416 787.722 478.832 787.588 478.943C785.391 480.771 783.34 482.726 781.283 484.649C781.089 484.829 780.689 484.945 780.448 485.185C780.164 485.467 780.133 485.911 779.558 486.121C779.234 486.24 778.817 486.084 778.562 486.404L778.258 486.449L778.25 486.452Z"></path>
<path fill="black" d="M750.352 489.027L750.454 489.012L750.42 489.116L750.352 489.027Z"></path>
<path fill="black" d="M804.443 354.082L804.383 354.04L804.427 353.983L804.443 354.082Z"></path>
<path fill="black" d="M804.076 353.732C804.01 353.679 803.851 353.635 803.941 353.556C803.999 353.606 804.163 353.65 804.076 353.732Z"></path>
<path fill="black" d="M803.828 353.471L803.77 353.43L803.812 353.374L803.828 353.471Z"></path>
<path fill="black" d="M800.97 351.188L800.91 351.147L800.954 351.091L800.97 351.188Z"></path>
<path fill="black" d="M799.537 349.997L799.477 349.956L799.521 349.9L799.537 349.997Z"></path>
<path fill="black" d="M690.648 355.808L690.59 355.765L690.632 355.709L690.648 355.808Z"></path>
<path fill="black" d="M690.835 355.679L690.777 355.638L690.82 355.582L690.835 355.679Z"></path>
<path fill="black" d="M956.094 452.551C956.177 452.317 956.281 452.021 956.551 451.92L956.094 452.551Z"></path>
<path fill="black" d="M953.157 456.523C953.168 456.504 953.445 456.291 953.512 456.275L953.259 456.698C953.177 456.732 953.15 456.538 953.157 456.523Z"></path>
<path fill="black" d="M853.213 484.157L853.19 484.262C853.121 484.265 853.118 484.184 853.113 484.183L853.214 484.156L853.213 484.157Z"></path>
<path fill="black" d="M811.346 448.846L811.292 448.658C811.391 448.503 811.355 448.367 811.182 448.281L811.073 447.904C811.1 447.502 810.981 446.951 810.872 446.561C809.655 442.248 808.635 437.774 807.615 433.434C806.782 429.886 805.991 426.394 805.401 422.814C805.387 422.732 805.375 422.724 805.374 422.718C804.264 416.043 802.917 409.434 801.949 402.765C801.983 402.704 802.126 402.761 802.132 402.741C802.404 401.98 802.679 401.207 803.182 400.562C804.779 396.64 806.714 392.928 808.427 389.059C808.512 388.867 808.928 388.5 808.945 388.464C809.023 388.296 808.865 387.964 808.942 387.78C808.981 387.686 809.408 387.355 809.484 387.126C809.543 386.943 809.403 386.718 809.605 386.381C809.666 386.28 810.184 385.808 810.201 385.77C810.284 385.561 810.271 384.992 810.441 384.621C810.612 384.25 811.056 383.857 811.168 383.632C811.928 382.083 812.565 380.529 813.384 378.999C813.471 378.836 813.559 378.373 813.583 378.348C813.611 378.32 813.781 378.391 813.79 378.381C813.812 378.353 813.701 377.958 813.777 377.778C813.878 377.537 814.077 377.594 814.161 377.43C814.94 375.921 815.629 374.196 816.306 372.593C816.58 371.947 817.073 371.323 817.364 370.665C817.652 370.016 818.06 369.266 818.384 368.621C818.873 367.651 819.57 366.64 820.007 365.726C820.408 364.886 819.985 364.493 821 363.784C821.61 363.358 822.17 363.022 822.779 362.58C830.159 357.219 836.595 351.332 844.126 346.32C846.63 344.99 848.936 343.347 851.284 341.857C852.293 341.216 853.369 340.602 854.203 339.79L854.503 339.71C855.074 339.956 855.838 339.523 856.403 339.405C860.326 338.586 864.237 337.891 868.177 336.96C873.414 335.721 878.805 334.782 884.03 333.425C884.884 333.203 885.282 333.446 885.98 333.585C892.788 334.951 899.611 336.532 906.414 337.833C909.761 338.473 913.109 339.1 916.458 339.853C916.733 339.915 917.13 339.828 917.414 339.943C918.289 340.295 919.785 341.867 920.587 342.489C925.168 346.035 929.684 349.935 934.175 353.574C937.703 356.431 941.807 359.184 944.825 362.547C945.438 363.23 946.223 363.393 946.761 363.798C947.35 364.242 948.026 365.184 948.636 365.712C950.222 367.084 952.046 368.145 953.648 369.533C954.023 369.858 955.025 370.716 955.258 371.047C955.373 371.214 955.314 371.44 955.542 371.689C956.031 372.224 956.975 372.634 957.358 373.361C958.465 386.423 960.39 399.261 962.229 412.252C963.067 418.171 964.155 424.085 964.533 430.046C964.574 430.697 964.901 431.606 964.827 432.277C964.82 432.354 964.242 433.555 964.164 433.676C963.907 434.082 963.406 434.319 963.179 434.625C962.628 435.368 962.063 436.901 961.383 437.693C958.138 443.415 953.452 448.087 950.412 453.862C947.082 458.482 943.709 463.041 940.729 467.936C940.632 468.093 940.611 468.449 940.52 468.535C940.461 468.589 940.195 468.578 940.04 468.676C938.886 469.41 938.904 469.057 937.83 469.415C937.143 469.643 936.756 470.246 936.049 470.539C935.698 470.686 934.625 470.824 934.366 470.951C934.128 471.068 933.903 471.516 933.608 471.635C933.355 471.735 933.108 471.659 932.906 471.733C931.482 472.251 929.971 473.216 928.636 473.916C927.494 474.515 925.697 475.618 924.533 475.914C924.397 475.95 924.199 475.84 923.995 475.896C923.638 475.992 923.434 476.391 923.098 476.539C922.581 476.767 921.855 476.722 921.49 476.869C921.232 476.973 920.265 477.61 919.815 477.813C918.328 478.481 916.788 479.143 915.308 479.754C914.751 479.983 914.228 480.429 913.855 480.611C913.414 480.827 912.782 480.727 912.345 480.917C911.986 481.074 911.87 481.346 911.611 481.486C911.378 481.609 910.845 481.666 910.554 481.8C909.2 482.428 908.02 483.23 906.589 483.751C906.354 483.838 906.116 483.699 905.825 483.816C905.404 483.984 905.26 484.453 905.082 484.539C904.545 484.804 903.325 485.139 902.693 485.334C900.816 486.324 898.686 487.486 896.822 488.256C895.733 488.706 895.34 488.974 894.369 489.497C894.079 489.653 893.712 489.652 893.382 489.847C893.175 489.97 893.074 490.262 892.924 490.288C892.888 490.294 892.247 490.348 892.213 490.338C891.393 490.097 891.431 490.23 890.663 490.132C889.895 490.033 888.637 489.759 888.233 489.629C888.157 489.605 887.574 489.712 887.324 489.678C886.69 489.59 885.781 489.251 885.133 489.266C883.863 489.295 883.912 489.228 882.732 489.069C880.263 488.735 877.719 488.662 875.39 488.299C870.852 487.59 865.957 487.104 861.35 486.628C859.446 486.431 857.692 486.293 855.81 486.057C855.64 486.035 855.397 486.161 855.308 486.126C855.257 486.106 855.215 485.903 855.104 485.838C854.33 485.396 853.934 484.71 853.214 484.161L853.138 484.082L853.115 484.187C852.366 483.944 852.43 483.512 851.93 483.054C851.029 482.225 849.552 481.361 848.604 480.587C846.456 478.837 844.564 476.9 842.441 475.213C842.343 475.134 842.01 475.055 841.985 475.028C841.915 474.957 842.009 474.828 841.998 474.795C841.968 474.712 841.875 474.889 841.798 474.839C841.009 474.331 840.527 473.691 839.884 473.153C836.475 470.307 832.993 467.617 829.57 464.728C826.685 462.292 823.567 459.816 820.96 457.15C820.848 457.036 820.395 456.921 820.263 456.807C818.101 454.941 815.825 453.229 813.581 451.506C813.37 451.344 813.202 450.979 812.923 450.779C812.597 450.543 812.132 450.566 811.845 450.046C811.683 449.753 811.796 449.34 811.433 449.136L811.35 448.853L811.346 448.846Z"></path>
<path fill="black" d="M805.374 422.718L805.402 422.813L805.289 422.793L805.374 422.718Z"></path>
<path fill="black" d="M952.203 458.045L952.24 457.982L952.304 458.018L952.203 458.045Z"></path>
<path fill="black" d="M952.523 457.656C952.571 457.588 952.598 457.432 952.691 457.508C952.646 457.568 952.62 457.729 952.523 457.656Z"></path>
<path fill="black" d="M952.766 457.387L952.802 457.327L952.865 457.361L952.766 457.387Z"></path>
<path fill="black" d="M954.805 454.413L954.84 454.352L954.904 454.387L954.805 454.413Z"></path>
<path fill="black" d="M955.875 452.913L955.91 452.852L955.974 452.887L955.875 452.913Z"></path>
<path fill="black" d="M936.977 350.432L937.015 350.372L937.078 350.406L936.977 350.432Z"></path>
<path fill="black" d="M937.133 350.594L937.169 350.534L937.232 350.568L937.133 350.594Z"></path>
</g>
<g clip-path="url(#clip2_942_523)">
<path fill="#AB5C76" d="M149.207 966.659C147.134 961.739 143.759 957.974 141.308 953.42C138.218 947.672 135.626 941.03 132.503 935.138C125.273 921.512 118.745 909.236 111.911 895.116C101.432 873.468 87.8724 848.358 77.7804 826.561C56.7141 781.057 36.854 740.168 13.25 696.962L0.00200852 668.124C-0.00699153 667.536 0.00193121 667.809 0.298933 667.725C0.994937 667.521 3.68295 667.497 4.66095 667.449C23.588 666.519 42.7101 667.86 61.6224 667.713C71.4054 667.638 81.1884 666.951 90.9864 666.915C102.242 666.873 113.471 666.612 124.715 666.675C145.095 666.786 165.59 667.161 186.021 667.719C194.1 667.938 202.197 667.458 210.222 667.725C233.7 668.502 257.325 666.228 280.842 667.743C287.229 666.981 293.559 667.617 300 667.467C299.769 669.42 298.719 669.9 297.939 671.223C293.07 679.467 289.644 687.708 285.675 696.584C280.224 708.782 274.302 720.605 268.809 732.818C255.342 762.773 241.962 788.116 226.881 816.664C217.41 834.592 207.573 857.127 197.613 874.602C195.846 877.704 193.485 880.737 191.673 883.947C179.277 905.891 168.615 929.711 156.792 952.205C154.284 956.978 151.31 961.367 149.405 966.665H149.207V966.659Z"></path>
</g>
<g clip-path="url(#clip3_942_523)">
<path fill="black" d="M344.268 958.355C331.578 947.834 331.341 934.487 336.45 919.6C338.328 914.125 342.708 908.506 347.433 905.314C349.158 904.147 353.196 902.464 354.466 901.357C355.807 900.187 356.697 894.514 356.838 892.642C357.3 886.495 356.826 879.76 357.156 873.589C357.315 870.607 357.597 868.27 357.669 865.204C357.93 853.951 356.628 842.716 356.433 831.439C355.935 802.924 358.161 774.301 356.616 745.777C356.328 740.449 356.913 737.452 352.56 733.978C340.065 724.006 332.088 717.03 333.615 698.778C334.377 689.658 344.229 676.308 352.533 672.903C361.068 669.402 375.642 671.385 383.382 676.347C391.617 681.624 393.741 689.451 404.652 690.78C422.463 692.946 440.694 691.929 458.679 691.935C469.569 691.935 480.49 692.274 491.389 692.109C504.163 691.914 517.219 692.022 530.14 692.232C539.02 692.376 550.825 694.089 559.201 691.581C569.539 688.488 572.287 677.916 580.549 672.063C596.065 661.071 618.184 667.794 627.445 683.847C637.036 700.47 634.903 718.921 621.088 732.037C618.592 734.407 615.946 735.469 613.576 738.568C609.643 743.713 609.22 745.678 608.908 752.203C608.284 765.244 608.821 778.513 608.434 791.59C607.555 821.197 606.403 851.776 607.804 881.35C607.975 884.941 608.434 894.721 609.301 897.739C611.158 904.198 617.218 904.681 622.06 907.585C632.266 913.705 633.424 923.248 632.413 934.289C631.303 946.409 626.158 961.007 613.813 965.12C604.093 968.36 589.837 965.096 581.812 958.745C575.908 954.071 572.713 946.967 565.54 944.534C533.719 943.571 502.009 946.394 470.226 946.001C448.908 945.737 425.139 942.956 404.175 945.194C402.978 945.323 396.228 947.597 395.472 948.251C394.917 948.731 393.297 952.112 392.619 953.087C381.192 969.491 359.229 970.763 344.265 958.355H344.268ZM396.459 920.377C398.118 923.581 399.342 925.903 401.808 926.959C406.008 928.76 410.913 928.643 418.248 928.877C449.916 929.888 482.4 928.633 514.033 927.805C525.991 927.493 537.949 926.833 549.883 926.455C553.36 926.347 559.378 926.455 562.648 925.933C565.609 925.456 568.009 925.456 569.962 919.522C570.682 917.338 572.047 915.136 573.385 913.171C575.503 910.069 578.902 906.325 582.205 904.585C584.098 903.586 588.469 902.341 589.864 901.108C592.078 899.149 593.686 892.186 593.809 889.156C593.911 886.714 593.701 881.053 593.737 878.605C593.932 865.402 594.52 852.25 594.679 839.047C594.961 815.992 595.093 792.7 594.214 769.642C593.869 760.639 594.661 747.853 589.006 740.416C587.311 738.187 581.776 736.543 579.1 734.791C574.594 731.839 570.748 726.988 568.342 722.134C565.825 717.055 566.383 713.829 561.112 710.307C555.061 706.266 539.548 706.356 532.033 706.11C490.981 704.763 449.85 706.23 408.774 706.134C407.886 706.257 402.405 707.655 399.402 711.654C398.946 712.263 398.232 714.39 397.68 715.303C396.63 717.04 395.97 719.191 394.905 720.853C393.486 723.067 391.986 724.324 390.108 726.454C385.494 731.689 377.421 733.672 374.313 739.699C371.727 744.715 372.519 763.072 372.333 769.624C372.048 779.575 371.43 789.559 371.376 799.489C371.298 813.703 372.513 827.908 372.81 842.104C373.098 855.928 372.879 869.632 373.284 883.429C373.377 886.624 372.717 892.777 373.278 895.525C374.238 900.232 381.183 903.229 384.495 905.878C389.052 909.523 393.741 915.112 396.459 920.365V920.377Z"></path>
</g>
<g clip-path="url(#clip4_942_523)">
<path fill="black" d="M666.668 819.2C666.725 814.151 667.859 805.566 670.514 801.228C673.529 796.308 679.148 789.987 684.227 787.077C685.481 786.36 688.172 785.367 690.314 784.263C691.283 783.765 692.372 782.664 692.546 778.485C692.072 768.478 692.471 758.449 692.273 748.441C692.075 738.406 693.347 730.268 684.845 723.224C678.248 717.758 674.765 716.801 671.633 707.786C666.479 692.946 675.416 672.798 691.001 667.947C705.695 663.372 728.869 675.258 731.377 690.372C733.669 704.177 728.986 713.546 717.916 721.598C712.714 725.381 705.503 728.399 704.978 735.706C704.201 746.518 705.899 759.46 706.46 770.407C706.721 775.488 706.174 780.087 709.738 784.554C710.605 785.64 715.717 787.518 717.427 788.508C720.268 790.155 723.259 792.432 725.452 794.841C729.196 798.954 732.595 806.586 738.661 807.255C745.537 808.014 753.976 807.72 761.002 807.888C766.378 808.017 776.926 809.097 781.831 808.176C786.772 807.246 794.671 795.249 799.575 791.754C801.732 790.215 804.123 789.558 805.569 787.101C808.38 782.325 807.087 776.979 807.054 771.85C806.982 759.766 807.27 743.965 806.886 730.895C806.79 730.361 807.273 728.666 803.97 725.465C803.4 724.913 799.815 723.779 798.535 722.972C780.814 711.827 777.463 685.224 795.016 672.168C801.021 667.701 814.245 666.825 821.412 668.49C828.675 670.176 838.638 677.949 841.101 684.924C846.888 701.291 842.853 713.882 828.282 723.584C825.39 725.51 823.785 725.255 821.928 728.684C820.473 731.369 821.187 732.503 821.256 735.655C821.562 750.181 820.56 769.411 820.758 783.948C821.931 788.439 823.926 788.535 827.334 790.581C831.876 793.308 838.014 796.89 841.209 801.072C843.333 803.85 845.535 809.715 849.129 810.53C851.478 811.064 860.172 810.875 863.229 810.932C871.386 811.082 891.486 811.883 898.338 809.535C904.086 807.564 902.532 804.543 905.142 800.1C909.858 792.069 918.996 791.721 923.231 785.607C925.109 782.898 925.199 774.492 925.286 770.902C925.577 758.935 924.875 740.071 924.575 736.771C924.302 733.769 923.03 732.332 922.152 731.135C919.059 726.914 914.919 726.218 910.782 723.134C904.176 718.205 899.691 708.671 900 700.538C900.396 690.099 903.207 682.218 909.795 674.127C921.221 660.09 947.069 667.809 955.55 681.186C963.248 693.33 963.845 704.15 956.069 716.435C952.598 721.919 948.65 724.577 943.103 727.814C942.188 728.348 940.751 728.801 940.034 729.116C938.975 729.578 936.845 732.506 936.41 734.491C935.975 736.477 935.645 763.81 936.527 778.386C937.22 789.834 944.648 789.588 952.823 795.108C968.96 806.01 971.885 830.255 956.837 843.245C952.589 846.914 949.064 847.768 944.411 850.216C937.502 853.852 938.771 859.039 938.642 865.915C938.513 872.791 937.817 895.674 941.03 900.528C942.944 903.42 948.014 905.622 950.792 907.872C961.553 916.583 965.645 924.158 964.391 938.165C963.698 945.908 955.157 957.928 948.218 961.69C930.2 971.461 909.162 961.9 902.124 943.922C896.934 930.665 902.655 910.011 916.419 903.753C919.26 902.46 922.979 902.172 924.794 899.514C927.557 895.464 925.019 878.823 924.788 873.415C924.584 868.651 925.622 858.568 924.431 854.662C923.555 851.794 920.33 850.21 916.155 846.746C911.979 843.281 907.881 839.585 905.202 834.758C902.886 830.585 902.076 825.389 896.343 824.465L855.945 823.865C852.282 824.078 850.833 825.659 848.898 827.333C845.268 830.477 843.972 835.274 840.585 838.637C838.695 840.515 832.914 844.675 830.535 846.175C829.752 846.67 827.337 847.565 826.953 847.976C823.152 852.052 824.937 864.601 824.847 870.07C824.748 876.048 822.765 889.227 824.433 894.339C826.101 899.451 837.24 905.379 841.455 908.601C866.814 927.986 837.888 976.906 805.491 961.375C798.427 957.988 790.198 947.927 787.663 940.739C784.411 931.511 785.203 924.119 788.845 915.308C790.645 910.956 795.904 905.265 799.972 902.772C802.878 900.993 805.563 900.987 807.351 897.72C810.792 891.429 809.208 872.278 809.181 864.49C809.166 860.335 810.24 853.825 808.623 850.09C806.925 846.164 803.889 846.052 800.592 843.775C797.296 841.498 791.866 835.802 789.718 832.253C787.726 828.959 786.364 823.367 781.387 822.716C774.625 821.831 765.343 823.076 758.401 823.199C748.66 823.373 738.31 820.205 732.394 829.841C727.369 838.028 725.149 842.597 716.068 847.609C714.658 848.386 711.889 849.175 710.941 849.925C706.732 853.252 707.681 869.638 707.762 874.845C707.867 881.703 707.324 891.033 710.296 897.36C711.709 900.372 715.756 901.599 718.516 903.504C734.248 914.363 737.884 929.585 731.623 947.147C726.766 960.769 716.032 965.344 701.96 966.577C684.479 968.107 666.62 949.304 668.363 932.669C669.725 919.676 675.839 910.584 685.682 902.304C688.628 899.826 690.86 900.186 692.984 896.379C694.493 893.679 693.959 891.159 693.905 888.378C693.758 880.842 694.304 873.301 694.406 865.777C694.445 862.762 694.784 857.905 694.406 855.1C694.241 853.858 691.988 851.005 691.058 850.093C688.706 847.792 684.953 847.177 681.959 845.446C674.27 841.006 666.758 828.587 666.68 819.851C666.68 819.641 666.68 819.425 666.68 819.215L666.668 819.2Z"></path>
</g>
<defs>
<clipPath id="clip0_942_523">
<rect transform="translate(666.668)" fill="white" height="333.333" width="333.334"></rect>
</clipPath>
<clipPath id="clip1_942_523">
<rect transform="translate(666.668 333.335)" fill="white" height="333.333" width="333.334"></rect>
</clipPath>
<clipPath id="clip2_942_523">
<rect transform="translate(0 666.665)" fill="white" height="333.333" width="333.334"></rect>
</clipPath>
<clipPath id="clip3_942_523">
<rect transform="translate(333.332 666.665)" fill="white" height="333.333" width="333.334"></rect>
</clipPath>
<clipPath id="clip4_942_523">
<rect transform="translate(666.668 666.665)" fill="white" height="333.333" width="333.334"></rect>
</clipPath>
</defs>
</svg>
